<mxfile host="Electron" modified="2023-05-04T00:36:08.895Z" agent="Mozilla/5.0 (Windows NT 10.0; Win64; x64) AppleWebKit/537.36 (KHTML, like Gecko) draw.io/21.2.1 Chrome/112.0.5615.87 Electron/24.1.2 Safari/537.36" etag="MISRTioonpviX3OG1u8w" version="21.2.1" type="device">
  <diagram id="vlQ4cCGF7pmTiZOiMdaH" name="Page-1">
    <mxGraphModel dx="922" dy="445" grid="0" gridSize="10" guides="1" tooltips="1" connect="1" arrows="1" fold="1" page="1" pageScale="1" pageWidth="827" pageHeight="1169" math="0" shadow="0">
      <root>
        <mxCell id="0" />
        <mxCell id="1" parent="0" />
        <mxCell id="yZ7onQmTQ14Sr_SoaYTW-3" value="" style="rounded=0;whiteSpace=wrap;html=1;" vertex="1" parent="1">
          <mxGeometry x="65" y="196" width="501" height="291" as="geometry" />
        </mxCell>
        <mxCell id="QUbH-xGFo9RlOZZimAHY-6" value="Pila" style="text;html=1;strokeColor=none;fillColor=none;align=center;verticalAlign=middle;whiteSpace=wrap;rounded=0;" parent="1" vertex="1">
          <mxGeometry x="81" y="207" width="60" height="30" as="geometry" />
        </mxCell>
        <mxCell id="QUbH-xGFo9RlOZZimAHY-8" value="Monticulo" style="text;html=1;strokeColor=none;fillColor=none;align=center;verticalAlign=middle;whiteSpace=wrap;rounded=0;" parent="1" vertex="1">
          <mxGeometry x="81" y="276" width="60" height="30" as="geometry" />
        </mxCell>
        <mxCell id="QUbH-xGFo9RlOZZimAHY-27" value="Viajeros" style="whiteSpace=wrap;html=1;align=center;" parent="1" vertex="1">
          <mxGeometry x="274" y="207" width="100" height="40" as="geometry" />
        </mxCell>
        <mxCell id="QUbH-xGFo9RlOZZimAHY-42" value="" style="rounded=0;whiteSpace=wrap;html=1;" parent="1" vertex="1">
          <mxGeometry x="254" y="288" width="26" height="24" as="geometry" />
        </mxCell>
        <mxCell id="QUbH-xGFo9RlOZZimAHY-43" value="" style="rounded=0;whiteSpace=wrap;html=1;" parent="1" vertex="1">
          <mxGeometry x="280" y="288" width="26" height="24" as="geometry" />
        </mxCell>
        <mxCell id="QUbH-xGFo9RlOZZimAHY-44" value="" style="rounded=0;whiteSpace=wrap;html=1;" parent="1" vertex="1">
          <mxGeometry x="358" y="288" width="26" height="24" as="geometry" />
        </mxCell>
        <mxCell id="QUbH-xGFo9RlOZZimAHY-45" value="" style="rounded=0;whiteSpace=wrap;html=1;" parent="1" vertex="1">
          <mxGeometry x="306" y="288" width="26" height="24" as="geometry" />
        </mxCell>
        <mxCell id="QUbH-xGFo9RlOZZimAHY-46" value="" style="rounded=0;whiteSpace=wrap;html=1;" parent="1" vertex="1">
          <mxGeometry x="332" y="288" width="26" height="24" as="geometry" />
        </mxCell>
        <mxCell id="QUbH-xGFo9RlOZZimAHY-47" value="" style="curved=1;endArrow=classic;html=1;rounded=0;exitX=1;exitY=0.5;exitDx=0;exitDy=0;entryX=1;entryY=0.5;entryDx=0;entryDy=0;" parent="1" source="QUbH-xGFo9RlOZZimAHY-27" target="QUbH-xGFo9RlOZZimAHY-44" edge="1">
          <mxGeometry width="50" height="50" relative="1" as="geometry">
            <mxPoint x="493" y="270" as="sourcePoint" />
            <mxPoint x="543" y="220" as="targetPoint" />
            <Array as="points">
              <mxPoint x="407" y="233" />
              <mxPoint x="417" y="291" />
            </Array>
          </mxGeometry>
        </mxCell>
        <mxCell id="QUbH-xGFo9RlOZZimAHY-48" value=":Viajero" style="swimlane;fontStyle=0;childLayout=stackLayout;horizontal=1;startSize=26;fillColor=none;horizontalStack=0;resizeParent=1;resizeParentMax=0;resizeLast=0;collapsible=1;marginBottom=0;" parent="1" vertex="1">
          <mxGeometry x="81" y="362" width="82" height="108" as="geometry" />
        </mxCell>
        <mxCell id="QUbH-xGFo9RlOZZimAHY-49" value="1&#xa;001&#xa;a&#xa;b&#xa;1000" style="text;strokeColor=none;fillColor=none;align=left;verticalAlign=top;spacingLeft=4;spacingRight=4;overflow=hidden;rotatable=0;points=[[0,0.5],[1,0.5]];portConstraint=eastwest;" parent="QUbH-xGFo9RlOZZimAHY-48" vertex="1">
          <mxGeometry y="26" width="82" height="82" as="geometry" />
        </mxCell>
        <mxCell id="QUbH-xGFo9RlOZZimAHY-52" value=":Viajero" style="swimlane;fontStyle=0;childLayout=stackLayout;horizontal=1;startSize=26;fillColor=none;horizontalStack=0;resizeParent=1;resizeParentMax=0;resizeLast=0;collapsible=1;marginBottom=0;" parent="1" vertex="1">
          <mxGeometry x="181" y="361" width="82" height="110" as="geometry" />
        </mxCell>
        <mxCell id="QUbH-xGFo9RlOZZimAHY-53" value="2&#xa;010&#xa;c&#xa;d&#xa;2000" style="text;strokeColor=none;fillColor=none;align=left;verticalAlign=top;spacingLeft=4;spacingRight=4;overflow=hidden;rotatable=0;points=[[0,0.5],[1,0.5]];portConstraint=eastwest;" parent="QUbH-xGFo9RlOZZimAHY-52" vertex="1">
          <mxGeometry y="26" width="82" height="84" as="geometry" />
        </mxCell>
        <mxCell id="QUbH-xGFo9RlOZZimAHY-56" value=":Viajero" style="swimlane;fontStyle=0;childLayout=stackLayout;horizontal=1;startSize=26;fillColor=none;horizontalStack=0;resizeParent=1;resizeParentMax=0;resizeLast=0;collapsible=1;marginBottom=0;" parent="1" vertex="1">
          <mxGeometry x="278" y="361" width="82" height="107" as="geometry" />
        </mxCell>
        <mxCell id="QUbH-xGFo9RlOZZimAHY-57" value="3&#xa;011&#xa;e&#xa;f&#xa;3000" style="text;strokeColor=none;fillColor=none;align=left;verticalAlign=top;spacingLeft=4;spacingRight=4;overflow=hidden;rotatable=0;points=[[0,0.5],[1,0.5]];portConstraint=eastwest;" parent="QUbH-xGFo9RlOZZimAHY-56" vertex="1">
          <mxGeometry y="26" width="82" height="81" as="geometry" />
        </mxCell>
        <mxCell id="QUbH-xGFo9RlOZZimAHY-60" value=":Viajero" style="swimlane;fontStyle=0;childLayout=stackLayout;horizontal=1;startSize=26;fillColor=none;horizontalStack=0;resizeParent=1;resizeParentMax=0;resizeLast=0;collapsible=1;marginBottom=0;" parent="1" vertex="1">
          <mxGeometry x="473" y="360" width="82" height="108" as="geometry" />
        </mxCell>
        <mxCell id="QUbH-xGFo9RlOZZimAHY-61" value="5&#xa;101&#xa;i&#xa;j&#xa;5000" style="text;strokeColor=none;fillColor=none;align=left;verticalAlign=top;spacingLeft=4;spacingRight=4;overflow=hidden;rotatable=0;points=[[0,0.5],[1,0.5]];portConstraint=eastwest;" parent="QUbH-xGFo9RlOZZimAHY-60" vertex="1">
          <mxGeometry y="26" width="82" height="82" as="geometry" />
        </mxCell>
        <mxCell id="QUbH-xGFo9RlOZZimAHY-64" value=":Viajero" style="swimlane;fontStyle=0;childLayout=stackLayout;horizontal=1;startSize=26;fillColor=none;horizontalStack=0;resizeParent=1;resizeParentMax=0;resizeLast=0;collapsible=1;marginBottom=0;" parent="1" vertex="1">
          <mxGeometry x="373" y="360" width="82" height="109" as="geometry" />
        </mxCell>
        <mxCell id="QUbH-xGFo9RlOZZimAHY-65" value="4&#xa;100&#xa;g&#xa;h&#xa;4000" style="text;strokeColor=none;fillColor=none;align=left;verticalAlign=top;spacingLeft=4;spacingRight=4;overflow=hidden;rotatable=0;points=[[0,0.5],[1,0.5]];portConstraint=eastwest;" parent="QUbH-xGFo9RlOZZimAHY-64" vertex="1">
          <mxGeometry y="26" width="82" height="83" as="geometry" />
        </mxCell>
        <mxCell id="QUbH-xGFo9RlOZZimAHY-69" value="" style="edgeStyle=segmentEdgeStyle;endArrow=classic;html=1;rounded=0;exitX=0.5;exitY=1;exitDx=0;exitDy=0;" parent="1" source="QUbH-xGFo9RlOZZimAHY-42" edge="1">
          <mxGeometry width="50" height="50" relative="1" as="geometry">
            <mxPoint x="181" y="366" as="sourcePoint" />
            <mxPoint x="129" y="360" as="targetPoint" />
            <Array as="points">
              <mxPoint x="267" y="324" />
              <mxPoint x="129" y="324" />
            </Array>
          </mxGeometry>
        </mxCell>
        <mxCell id="QUbH-xGFo9RlOZZimAHY-71" value="" style="edgeStyle=segmentEdgeStyle;endArrow=classic;html=1;rounded=0;exitX=0.5;exitY=1;exitDx=0;exitDy=0;" parent="1" source="QUbH-xGFo9RlOZZimAHY-43" target="QUbH-xGFo9RlOZZimAHY-52" edge="1">
          <mxGeometry width="50" height="50" relative="1" as="geometry">
            <mxPoint x="232" y="386" as="sourcePoint" />
            <mxPoint x="252" y="460" as="targetPoint" />
            <Array as="points">
              <mxPoint x="293" y="336" />
              <mxPoint x="225" y="336" />
            </Array>
          </mxGeometry>
        </mxCell>
        <mxCell id="QUbH-xGFo9RlOZZimAHY-72" value="" style="edgeStyle=segmentEdgeStyle;endArrow=classic;html=1;rounded=0;exitX=0.5;exitY=1;exitDx=0;exitDy=0;entryX=0.5;entryY=0;entryDx=0;entryDy=0;" parent="1" source="QUbH-xGFo9RlOZZimAHY-45" target="QUbH-xGFo9RlOZZimAHY-56" edge="1">
          <mxGeometry width="50" height="50" relative="1" as="geometry">
            <mxPoint x="365" y="381" as="sourcePoint" />
            <mxPoint x="415" y="331" as="targetPoint" />
            <Array as="points">
              <mxPoint x="319" y="347" />
              <mxPoint x="319" y="347" />
            </Array>
          </mxGeometry>
        </mxCell>
        <mxCell id="QUbH-xGFo9RlOZZimAHY-73" value="" style="edgeStyle=segmentEdgeStyle;endArrow=classic;html=1;rounded=0;entryX=0.5;entryY=0;entryDx=0;entryDy=0;exitX=0.5;exitY=1;exitDx=0;exitDy=0;" parent="1" source="QUbH-xGFo9RlOZZimAHY-44" target="QUbH-xGFo9RlOZZimAHY-60" edge="1">
          <mxGeometry width="50" height="50" relative="1" as="geometry">
            <mxPoint x="442" y="360" as="sourcePoint" />
            <mxPoint x="492" y="310" as="targetPoint" />
            <Array as="points">
              <mxPoint x="371" y="327" />
              <mxPoint x="514" y="327" />
            </Array>
          </mxGeometry>
        </mxCell>
        <mxCell id="yZ7onQmTQ14Sr_SoaYTW-1" value="" style="edgeStyle=segmentEdgeStyle;endArrow=classic;html=1;rounded=0;exitX=0.5;exitY=1;exitDx=0;exitDy=0;entryX=0.5;entryY=0;entryDx=0;entryDy=0;" edge="1" parent="1" source="QUbH-xGFo9RlOZZimAHY-46" target="QUbH-xGFo9RlOZZimAHY-64">
          <mxGeometry width="50" height="50" relative="1" as="geometry">
            <mxPoint x="400" y="337" as="sourcePoint" />
            <mxPoint x="332" y="386" as="targetPoint" />
            <Array as="points">
              <mxPoint x="345" y="341" />
              <mxPoint x="414" y="341" />
            </Array>
          </mxGeometry>
        </mxCell>
        <mxCell id="yZ7onQmTQ14Sr_SoaYTW-5" value="" style="endArrow=none;html=1;rounded=0;exitX=0.004;exitY=0.233;exitDx=0;exitDy=0;exitPerimeter=0;entryX=0.998;entryY=0.233;entryDx=0;entryDy=0;entryPerimeter=0;" edge="1" parent="1" source="yZ7onQmTQ14Sr_SoaYTW-3" target="yZ7onQmTQ14Sr_SoaYTW-3">
          <mxGeometry width="50" height="50" relative="1" as="geometry">
            <mxPoint x="224" y="313" as="sourcePoint" />
            <mxPoint x="274" y="263" as="targetPoint" />
          </mxGeometry>
        </mxCell>
      </root>
    </mxGraphModel>
  </diagram>
</mxfile>
